<mxfile host="app.diagrams.net" modified="2024-05-31T02:28:46.220Z" agent="Mozilla/5.0 (Windows NT 6.3; Win64; x64) AppleWebKit/537.36 (KHTML, like Gecko) Chrome/98.0.4758.102 Safari/537.36" version="24.4.10" etag="RVWPH4JPdiJKTcFcRYO6" type="github">
  <diagram name="第 1 页" id="F8EUJ6ux7F7tLlqP0rrG">
    <mxGraphModel>
      <root>
        <mxCell id="0" />
        <mxCell id="1" parent="0" />
      </root>
    </mxGraphModel>
  </diagram>
</mxfile>
